{
	"asset":{
		"generator":"Khronos glTF Blender I/O v4.3.47",
		"version":"2.0"
	},
	"scene":0,
	"scenes":[
		{
			"name":"Scene",
			"nodes":[
				0,
				1,
				2,
				3,
				4,
				5
			]
		}
	],
	"nodes":[
		{
			"mesh":0,
			"name":"D4"
		},
		{
			"mesh":1,
			"name":"D8"
		},
		{
			"mesh":2,
			"name":"D20"
		},
		{
			"mesh":3,
			"name":"D12"
		},
		{
			"mesh":4,
			"name":"D10"
		},
		{
			"mesh":5,
			"name":"D6"
		}
	],
	"materials":[
		{
			"doubleSided":true,
			"emissiveFactor":[
				1,
				1,
				1
			],
			"emissiveTexture":{
				"index":0
			},
			"name":"Material.021",
			"normalTexture":{
				"index":1
			},
			"pbrMetallicRoughness":{
				"baseColorTexture":{
					"index":2
				},
				"metallicRoughnessTexture":{
					"index":3
				}
			}
		},
		{
			"doubleSided":true,
			"emissiveFactor":[
				1,
				1,
				1
			],
			"emissiveTexture":{
				"index":4
			},
			"name":"Material.020",
			"normalTexture":{
				"index":5
			},
			"pbrMetallicRoughness":{
				"baseColorTexture":{
					"index":6
				},
				"metallicRoughnessTexture":{
					"index":7
				}
			}
		},
		{
			"doubleSided":true,
			"emissiveFactor":[
				1,
				1,
				1
			],
			"emissiveTexture":{
				"index":8
			},
			"name":"Material.022",
			"normalTexture":{
				"index":9
			},
			"pbrMetallicRoughness":{
				"baseColorTexture":{
					"index":10
				},
				"metallicRoughnessTexture":{
					"index":11
				}
			}
		},
		{
			"doubleSided":true,
			"emissiveFactor":[
				1,
				1,
				1
			],
			"emissiveTexture":{
				"index":12
			},
			"name":"Material.023",
			"normalTexture":{
				"index":13
			},
			"pbrMetallicRoughness":{
				"baseColorTexture":{
					"index":14
				},
				"metallicRoughnessTexture":{
					"index":15
				}
			}
		},
		{
			"doubleSided":true,
			"emissiveFactor":[
				1,
				1,
				1
			],
			"emissiveTexture":{
				"index":16
			},
			"name":"Material.024",
			"normalTexture":{
				"index":17
			},
			"pbrMetallicRoughness":{
				"baseColorTexture":{
					"index":18
				},
				"metallicRoughnessTexture":{
					"index":19
				}
			}
		},
		{
			"doubleSided":true,
			"emissiveFactor":[
				1,
				1,
				1
			],
			"emissiveTexture":{
				"index":20
			},
			"name":"Material.025",
			"normalTexture":{
				"index":21
			},
			"pbrMetallicRoughness":{
				"baseColorTexture":{
					"index":22
				},
				"metallicRoughnessTexture":{
					"index":23
				}
			}
		}
	],
	"meshes":[
		{
			"name":"LP.020_Material.001_0.002",
			"primitives":[
				{
					"attributes":{
						"POSITION":0,
						"NORMAL":1,
						"TEXCOORD_0":2,
						"TEXCOORD_1":3,
						"TEXCOORD_2":4,
						"TEXCOORD_3":5
					},
					"indices":6,
					"material":0
				}
			]
		},
		{
			"name":"LP.024_Material.001_0.012",
			"primitives":[
				{
					"attributes":{
						"POSITION":7,
						"NORMAL":8,
						"TEXCOORD_0":9,
						"TEXCOORD_1":10,
						"TEXCOORD_2":11,
						"TEXCOORD_3":12
					},
					"indices":13,
					"material":1
				}
			]
		},
		{
			"name":"LP_Material.001_0.002",
			"primitives":[
				{
					"attributes":{
						"POSITION":14,
						"NORMAL":15,
						"TEXCOORD_0":16,
						"TEXCOORD_1":17,
						"TEXCOORD_2":18,
						"TEXCOORD_3":19
					},
					"indices":20,
					"material":2
				}
			]
		},
		{
			"name":"LP.019_Material.001_0.002",
			"primitives":[
				{
					"attributes":{
						"POSITION":21,
						"NORMAL":22,
						"TEXCOORD_0":23,
						"TEXCOORD_1":24,
						"TEXCOORD_2":25,
						"TEXCOORD_3":26
					},
					"indices":27,
					"material":3
				}
			]
		},
		{
			"name":"LP.017_Material.001_0.002",
			"primitives":[
				{
					"attributes":{
						"POSITION":28,
						"NORMAL":29,
						"TEXCOORD_0":30,
						"TEXCOORD_1":31,
						"TEXCOORD_2":32,
						"TEXCOORD_3":33
					},
					"indices":34,
					"material":4
				}
			]
		},
		{
			"name":"LP.009_Material.001_0.002",
			"primitives":[
				{
					"attributes":{
						"POSITION":35,
						"NORMAL":36,
						"TEXCOORD_0":37,
						"TEXCOORD_1":38,
						"TEXCOORD_2":39,
						"TEXCOORD_3":40
					},
					"indices":41,
					"material":5
				}
			]
		}
	],
	"textures":[
		{
			"sampler":0,
			"source":0
		},
		{
			"sampler":0,
			"source":1
		},
		{
			"sampler":0,
			"source":2
		},
		{
			"sampler":0,
			"source":3
		},
		{
			"sampler":0,
			"source":0
		},
		{
			"sampler":0,
			"source":1
		},
		{
			"sampler":0,
			"source":2
		},
		{
			"sampler":0,
			"source":3
		},
		{
			"sampler":0,
			"source":0
		},
		{
			"sampler":0,
			"source":1
		},
		{
			"sampler":0,
			"source":2
		},
		{
			"sampler":0,
			"source":3
		},
		{
			"sampler":0,
			"source":0
		},
		{
			"sampler":0,
			"source":1
		},
		{
			"sampler":0,
			"source":2
		},
		{
			"sampler":0,
			"source":3
		},
		{
			"sampler":0,
			"source":0
		},
		{
			"sampler":0,
			"source":1
		},
		{
			"sampler":0,
			"source":2
		},
		{
			"sampler":0,
			"source":3
		},
		{
			"sampler":0,
			"source":0
		},
		{
			"sampler":0,
			"source":1
		},
		{
			"sampler":0,
			"source":2
		},
		{
			"sampler":0,
			"source":3
		}
	],
	"images":[
		{
			"mimeType":"image/png",
			"name":"Material.001_emissive",
			"uri":"textures/Material_001_emissive.png"
		},
		{
			"mimeType":"image/png",
			"name":"Material.001_normal",
			"uri":"textures/Material_001_normal.png"
		},
		{
			"mimeType":"image/png",
			"name":"Material.001_baseColor",
			"uri":"textures/Material_001_baseColor.png"
		},
		{
			"mimeType":"image/png",
			"name":"Material.001_metallicRoughness",
			"uri":"textures/Material_001_metallicRoughness.png"
		}
	],
	"accessors":[
		{
			"bufferView":0,
			"componentType":5126,
			"count":12,
			"max":[
				0.5833172798156738,
				0.7283716201782227,
				0.9922482371330261
			],
			"min":[
				-0.9552750587463379,
				-0.8716022968292236,
				-0.4147641658782959
			],
			"type":"VEC3"
		},
		{
			"bufferView":1,
			"componentType":5126,
			"count":12,
			"type":"VEC3"
		},
		{
			"bufferView":2,
			"componentType":5126,
			"count":12,
			"type":"VEC2"
		},
		{
			"bufferView":3,
			"componentType":5126,
			"count":12,
			"type":"VEC2"
		},
		{
			"bufferView":4,
			"componentType":5126,
			"count":12,
			"type":"VEC2"
		},
		{
			"bufferView":5,
			"componentType":5126,
			"count":12,
			"type":"VEC2"
		},
		{
			"bufferView":6,
			"componentType":5123,
			"count":12,
			"type":"SCALAR"
		},
		{
			"bufferView":7,
			"componentType":5126,
			"count":24,
			"max":[
				0.6377032995223999,
				0.9001615047454834,
				0.6377032399177551
			],
			"min":[
				-0.637703537940979,
				-0.9001615047454834,
				-0.6377031207084656
			],
			"type":"VEC3"
		},
		{
			"bufferView":8,
			"componentType":5126,
			"count":24,
			"type":"VEC3"
		},
		{
			"bufferView":9,
			"componentType":5126,
			"count":24,
			"type":"VEC2"
		},
		{
			"bufferView":10,
			"componentType":5126,
			"count":24,
			"type":"VEC2"
		},
		{
			"bufferView":11,
			"componentType":5126,
			"count":24,
			"type":"VEC2"
		},
		{
			"bufferView":12,
			"componentType":5126,
			"count":24,
			"type":"VEC2"
		},
		{
			"bufferView":13,
			"componentType":5123,
			"count":24,
			"type":"SCALAR"
		},
		{
			"bufferView":14,
			"componentType":5126,
			"count":60,
			"max":[
				0.7227382659912109,
				0.798837423324585,
				0.6724801063537598
			],
			"min":[
				-0.7227401733398438,
				-0.7988386154174805,
				-0.6724793910980225
			],
			"type":"VEC3"
		},
		{
			"bufferView":15,
			"componentType":5126,
			"count":60,
			"type":"VEC3"
		},
		{
			"bufferView":16,
			"componentType":5126,
			"count":60,
			"type":"VEC2"
		},
		{
			"bufferView":17,
			"componentType":5126,
			"count":60,
			"type":"VEC2"
		},
		{
			"bufferView":18,
			"componentType":5126,
			"count":60,
			"type":"VEC2"
		},
		{
			"bufferView":19,
			"componentType":5126,
			"count":60,
			"type":"VEC2"
		},
		{
			"bufferView":20,
			"componentType":5123,
			"count":60,
			"type":"SCALAR"
		},
		{
			"bufferView":21,
			"componentType":5126,
			"count":60,
			"max":[
				0.7621694207191467,
				0.7371422052383423,
				0.6876598596572876
			],
			"min":[
				-0.7621698379516602,
				-0.73714280128479,
				-0.687659740447998
			],
			"type":"VEC3"
		},
		{
			"bufferView":22,
			"componentType":5126,
			"count":60,
			"type":"VEC3"
		},
		{
			"bufferView":23,
			"componentType":5126,
			"count":60,
			"type":"VEC2"
		},
		{
			"bufferView":24,
			"componentType":5126,
			"count":60,
			"type":"VEC2"
		},
		{
			"bufferView":25,
			"componentType":5126,
			"count":60,
			"type":"VEC2"
		},
		{
			"bufferView":26,
			"componentType":5126,
			"count":60,
			"type":"VEC2"
		},
		{
			"bufferView":27,
			"componentType":5123,
			"count":108,
			"type":"SCALAR"
		},
		{
			"bufferView":28,
			"componentType":5126,
			"count":40,
			"max":[
				0.8128519058227539,
				0.8214113712310791,
				0.6878122687339783
			],
			"min":[
				-0.8128514289855957,
				-0.8214116096496582,
				-0.6878119707107544
			],
			"type":"VEC3"
		},
		{
			"bufferView":29,
			"componentType":5126,
			"count":40,
			"type":"VEC3"
		},
		{
			"bufferView":30,
			"componentType":5126,
			"count":40,
			"type":"VEC2"
		},
		{
			"bufferView":31,
			"componentType":5126,
			"count":40,
			"type":"VEC2"
		},
		{
			"bufferView":32,
			"componentType":5126,
			"count":40,
			"type":"VEC2"
		},
		{
			"bufferView":33,
			"componentType":5126,
			"count":40,
			"type":"VEC2"
		},
		{
			"bufferView":34,
			"componentType":5123,
			"count":60,
			"type":"SCALAR"
		},
		{
			"bufferView":35,
			"componentType":5126,
			"count":24,
			"max":[
				0.6306419372558594,
				0.6306416392326355,
				0.6306416988372803
			],
			"min":[
				-0.6306414604187012,
				-0.6306416392326355,
				-0.6306416988372803
			],
			"type":"VEC3"
		},
		{
			"bufferView":36,
			"componentType":5126,
			"count":24,
			"type":"VEC3"
		},
		{
			"bufferView":37,
			"componentType":5126,
			"count":24,
			"type":"VEC2"
		},
		{
			"bufferView":38,
			"componentType":5126,
			"count":24,
			"type":"VEC2"
		},
		{
			"bufferView":39,
			"componentType":5126,
			"count":24,
			"type":"VEC2"
		},
		{
			"bufferView":40,
			"componentType":5126,
			"count":24,
			"type":"VEC2"
		},
		{
			"bufferView":41,
			"componentType":5123,
			"count":36,
			"type":"SCALAR"
		}
	],
	"bufferViews":[
		{
			"buffer":0,
			"byteLength":144,
			"byteOffset":0,
			"target":34962
		},
		{
			"buffer":0,
			"byteLength":144,
			"byteOffset":144,
			"target":34962
		},
		{
			"buffer":0,
			"byteLength":96,
			"byteOffset":288,
			"target":34962
		},
		{
			"buffer":0,
			"byteLength":96,
			"byteOffset":384,
			"target":34962
		},
		{
			"buffer":0,
			"byteLength":96,
			"byteOffset":480,
			"target":34962
		},
		{
			"buffer":0,
			"byteLength":96,
			"byteOffset":576,
			"target":34962
		},
		{
			"buffer":0,
			"byteLength":24,
			"byteOffset":672,
			"target":34963
		},
		{
			"buffer":0,
			"byteLength":288,
			"byteOffset":696,
			"target":34962
		},
		{
			"buffer":0,
			"byteLength":288,
			"byteOffset":984,
			"target":34962
		},
		{
			"buffer":0,
			"byteLength":192,
			"byteOffset":1272,
			"target":34962
		},
		{
			"buffer":0,
			"byteLength":192,
			"byteOffset":1464,
			"target":34962
		},
		{
			"buffer":0,
			"byteLength":192,
			"byteOffset":1656,
			"target":34962
		},
		{
			"buffer":0,
			"byteLength":192,
			"byteOffset":1848,
			"target":34962
		},
		{
			"buffer":0,
			"byteLength":48,
			"byteOffset":2040,
			"target":34963
		},
		{
			"buffer":0,
			"byteLength":720,
			"byteOffset":2088,
			"target":34962
		},
		{
			"buffer":0,
			"byteLength":720,
			"byteOffset":2808,
			"target":34962
		},
		{
			"buffer":0,
			"byteLength":480,
			"byteOffset":3528,
			"target":34962
		},
		{
			"buffer":0,
			"byteLength":480,
			"byteOffset":4008,
			"target":34962
		},
		{
			"buffer":0,
			"byteLength":480,
			"byteOffset":4488,
			"target":34962
		},
		{
			"buffer":0,
			"byteLength":480,
			"byteOffset":4968,
			"target":34962
		},
		{
			"buffer":0,
			"byteLength":120,
			"byteOffset":5448,
			"target":34963
		},
		{
			"buffer":0,
			"byteLength":720,
			"byteOffset":5568,
			"target":34962
		},
		{
			"buffer":0,
			"byteLength":720,
			"byteOffset":6288,
			"target":34962
		},
		{
			"buffer":0,
			"byteLength":480,
			"byteOffset":7008,
			"target":34962
		},
		{
			"buffer":0,
			"byteLength":480,
			"byteOffset":7488,
			"target":34962
		},
		{
			"buffer":0,
			"byteLength":480,
			"byteOffset":7968,
			"target":34962
		},
		{
			"buffer":0,
			"byteLength":480,
			"byteOffset":8448,
			"target":34962
		},
		{
			"buffer":0,
			"byteLength":216,
			"byteOffset":8928,
			"target":34963
		},
		{
			"buffer":0,
			"byteLength":480,
			"byteOffset":9144,
			"target":34962
		},
		{
			"buffer":0,
			"byteLength":480,
			"byteOffset":9624,
			"target":34962
		},
		{
			"buffer":0,
			"byteLength":320,
			"byteOffset":10104,
			"target":34962
		},
		{
			"buffer":0,
			"byteLength":320,
			"byteOffset":10424,
			"target":34962
		},
		{
			"buffer":0,
			"byteLength":320,
			"byteOffset":10744,
			"target":34962
		},
		{
			"buffer":0,
			"byteLength":320,
			"byteOffset":11064,
			"target":34962
		},
		{
			"buffer":0,
			"byteLength":120,
			"byteOffset":11384,
			"target":34963
		},
		{
			"buffer":0,
			"byteLength":288,
			"byteOffset":11504,
			"target":34962
		},
		{
			"buffer":0,
			"byteLength":288,
			"byteOffset":11792,
			"target":34962
		},
		{
			"buffer":0,
			"byteLength":192,
			"byteOffset":12080,
			"target":34962
		},
		{
			"buffer":0,
			"byteLength":192,
			"byteOffset":12272,
			"target":34962
		},
		{
			"buffer":0,
			"byteLength":192,
			"byteOffset":12464,
			"target":34962
		},
		{
			"buffer":0,
			"byteLength":192,
			"byteOffset":12656,
			"target":34962
		},
		{
			"buffer":0,
			"byteLength":72,
			"byteOffset":12848,
			"target":34963
		}
	],
	"samplers":[
		{
			"magFilter":9729,
			"minFilter":9987
		}
	],
	"buffers":[
		{
			"byteLength":12920,
			"uri":"dices.bin"
		}
	]
}
