<?xml version="1.0" encoding="utf-8"?>
<!-- Generator: Adobe Illustrator 16.0.0, SVG Export Plug-In . SVG Version: 6.00 Build 0)  -->
<!DOCTYPE svg PUBLIC "-//W3C//DTD SVG 1.1//EN" "http://www.w3.org/Graphics/SVG/1.1/DTD/svg11.dtd">
<svg version="1.1" id="Layer_1" xmlns="http://www.w3.org/2000/svg" xmlns:xlink="http://www.w3.org/1999/xlink" x="0px" y="0px"
	 width="1000px" height="341.456px" viewBox="0 0 1000 341.456" enable-background="new 0 0 1000 341.456" xml:space="preserve">
<g>
	<path fill="#ED1C24" d="M248.139,200.807c0.541,0,1.081,0,1.688,0.066v-4.996c-3.646,1.148-8.238,2.954-12.086,6.347
		C238.889,201.735,244.087,200.807,248.139,200.807"/>
	<path fill="#ED1C24" d="M90.343,189.869c-2.364-7.969-0.608-16.61,2.565-23.093c2.499,7.495,6.347,15.801,18.568,22.214
		c-1.148-5.958-0.675-13.639,1.08-19.665c-3.376-13.554,5.199-24.51,15.8-24.51c16.745,0,20.662,21.607,11.411,35.313
		c4.862,6.836,12.356,12.711,17.353,17.572c0.472,0.455,1.013,0.945,1.485,1.485c7.63-9.386,13.234-23.633,13.234-34.031
		c0-20.391-13.234-39.297-40.783-40.782c-17.42-0.945-29.236,4.457-38.015,13.437c-3.983,4.052-12.829,14.315-11.141,32.883
		C83.119,183.656,90.343,189.869,90.343,189.869"/>
	<path fill="#ED1C24" d="M63.807,221.13c11.614-2.431,17.488-0.405,19.378,4.372c1.351,3.46-0.27,8.255-1.283,13.993
		c3.916-4.321,17.286-13.504,27.144-15.26c-2.296-0.742-8.238-1.823-10.533-1.823c7.225-8.507,22.822-11.208,31.397-9.047
		c-5.672-0.271-16.61,2.633-20.999,6.212c3.849,0.743,7.427,1.604,10.466,2.7c-5.199,2.026-11.884,8.171-14.112,14.703
		c6.887-4.71,20.594-3.427,22.687,6.364c1.417,6.667-3.173,12.693-5.537,13.639c1.891,0.338,6.82-0.202,8.71-1.148
		c-0.675,2.752-4.861,7.293-7.495,8.17c7.225,0,17.488-4.608,20.121-11.275c0,0-4.254,1.351-6.212-0.625
		c-1.958-1.94,0.81-10.449,0.81-10.449s-2.835,3.715-4.996,1.554c-2.363-2.296,0.945-10.061,2.161-11.968
		c-2.229-0.861-8.576-1.604-11.276-1.334c7.9-2.836,25.523-4.405,27.414-0.878c1.486,2.769-2.296,8.305-2.296,8.305
		c3.106-0.202,12.086-0.134,15.26,3.715c3.241,3.898,1.351,9.047,1.351,9.047c7.089-3.376,13.369-14.719,11.816-25.455
		c-0.743,2.161-3.916,5.808-7.089,6.55c0.472-3.578-2.499-5.688-4.659-6.212c1.351-6.888-1.418-15.344-11.208-24.848
		c-8.373-8.035-23.97-19.327-23.227-33.828c-2.499,3.106-4.186,12.154-1.958,17.472c6.819,8.051,21.202,16.542,24.915,29.995
		c-6.415-15.682-37.204-28.021-35.854-49.56c-3.849,4.118-6.145,19.108-3.038,27.278c5.874,3.512,10.938,9.504,11.749,14.854
		c-5.537-12.424-27.819-14.787-34.098-29.794c-1.688,5.351-0.743,12.104,2.295,16.492c0,0-5.739-2.16-17.15-1.688
		c3.106,1.351,11.411,8.574,10.398,12.762C87.777,208.369,71.64,213.213,63.807,221.13 M152.597,222.21
		c-6.617,0-8.71-4.996-10.263-10.533C150.301,214.648,152.597,222.21,152.597,222.21"/>
	<path fill="#ED1C24" d="M273.257,298.577c0,16.188-16.138,28.898-34.436,26.316c4.659,4.405,15.935,7.309,21.944,4.607
		c-3.444,6.195-19.987,15.058-35.583,10.871c-14.652-3.933-21.067-17.825-21.472-26.738c-6.82,6.888-4.997,18.163-0.067,22.62
		c-5.74-1.485-14.314-7.36-15.732-18.028c-1.283-9.132,3.849-19.581-5.74-27.954c-5.671-5.013-14.381-12.237-19.986-16.609
		c-11.749-9.184-7.292-16.003-9.925-20.813c-2.026-3.765-6.955-5.925-9.926-9.317c-2.971-3.494-2.836-8.644-1.215-11.546
		c-0.473,4.135,2.431,7.156,6.415,8.524c4.253,1.417,7.967,0.202,11.681,2.363c4.389,2.565,2.363,9.52,5.604,12.018
		c2.903,2.161,10.128-0.742,16.272,4.254c6.212,4.93,20.054,16.476,26.063,21.404c10.804,8.846,21.81-1.215,18.163-11.343
		c10.871,6.414,12.086,24.577,3.039,30.856c8.575,1.958,24.038-1.891,24.038-14.247c0-7.63-7.022-12.964-12.019-13.774
		C257.862,270.353,273.257,282.641,273.257,298.577"/>
	<path fill="#ED1C24" d="M179.943,292.837c0.337,0.32,0.743,0.675,1.08,1.013c-9.453,19.445-27.008,43.889-61.173,43.889
		c-12.356,0-23.16-4.523-31.195-10.061c-2.633-2.042-5.064-4.457-7.225-6.887v-0.068c-1.283-1.417-2.498-2.902-3.646-4.389
		c-1.553-1.958-2.701-1.891-3.511-0.827c-1.756,2.313,1.148,9.739,1.148,9.739c-26.671-25.387-13.099-62.051-12.559-63.874
		c1.485-4.524,0.135-5.334-1.418-4.727c-2.364,0.945-5.064,4.727-5.064,4.727c2.025-22.349,22.687-36.056,22.687-36.056
		c0.135,0.186,0.337,0.338,0.405,0.54c2.499,3.511-1.688,10.33-1.688,21.995c3.916-5.386,19.311-16.188,27.886-19.159
		c-2.701,3.511-4.997,8.777-5.334,16.069c0,0,6.212-7.039,14.381-7.039c1.958,0,3.781,0.354,5.334,1.098
		c-30.047,28.966-17.488,65.495,7.832,65.495c14.247,0,28.427-15.665,34.098-26.468
		C167.519,282.237,175.014,288.449,179.943,292.837"/>
	<path fill="#ED1C24" d="M280.819,219.375c-9.791-2.769-28.426,1.807-33.828,6.685c-8.372-6.363-24.375-5.401-33.558,5.132
		c-11.411,13.167-18.366,28.14-20.526,33.204c-3.714-3.09-7.292-5.993-9.656-7.9c-1.89-1.604-3.916-2.481-5.807-3.09
		c10.398-14.719,32.275-37.339,57.865-38.554c-14.517-2.094-36.799,7.968-48.277,22.011c2.161-9.317,12.626-24.712,25.118-31.937
		c0,0-6.145,7.765-3.646,8.912c4.051,2.026,14.044-14.043,27.684-14.651c0,0-9.993,4.861-7.833,8.17
		c1.688,2.498,8.237-3.174,19.783-3.174C262.116,204.182,274.877,212.893,280.819,219.375"/>
	<path fill="#ED1C24" d="M656.91,5.604c-36.258,0-62.592,25.32-62.592,60.364c0,34.369,26.468,59.352,62.929,59.352
		c36.192,0,63.538-25.878,63.538-60.162C720.785,31.194,693.303,5.604,656.91,5.604 M656.64,33.828
		c18.635,0,30.721,12.289,30.721,31.33c0,18.974-12.288,32.19-29.844,32.19c-18.162,0-29.912-12.339-29.912-31.38
		C627.605,46.116,638.679,33.828,656.64,33.828"/>
	<path fill="#ED1C24" d="M97.568,14.247c-8.373-4.389-16.948-6.55-28.562-7.023V7.157H45.645c-18.501,0-27.279-0.203-33.693-1.756
		C6.482,4.186,1.485,0.945,1.418,0.945L0,0l0.135,1.688c0.067,0.523,1.35,13.032,16.34,23.97c2.836,2.092,4.862,4.118,4.862,11.545
		v67.048c0,7.158-1.351,9.115-4.727,11.209c-3.511,2.093-11.006,6.481-11.006,6.481l-2.566,1.554H63.74
		c17.083,0,27.684-2.904,39.229-10.601c4.861-3.326,9.048-7.09,12.491-11.411c7.697-9.588,12.086-22.907,12.086-36.394
		C127.547,43.078,116.338,24.038,97.568,14.247 M66.846,95.187H53.747V35.364h13.099c17.083,0,26.94,10.955,26.94,30.064
		C93.786,84.316,83.928,95.187,66.846,95.187"/>
	<path fill="#ED1C24" d="M935.906,89.87c-0.608,21.742-19.243,35.786-47.535,35.786c-2.093,0-4.254-0.068-6.414-0.22
		c-6.549-0.456-19.379-2.684-23.228-3.562c-3.984-0.877-5.198-1.283-5.334-1.351l-2.633-0.895l-2.431-43.466l6.076,4.574
		l5.807,4.406c0.203,0.202,0.54,0.405,0.945,0.742c9.453,7.563,18.028,11.749,25.389,12.424c1.822,0.135,3.511,0.203,5.063,0.203
		c10.601,0,11.95-3.781,12.424-7.292c0.945-6.752-5.604-10.263-11.208-12.019l-2.094-0.625c-9.048-2.751-21.404-6.601-29.709-11.664
		c-9.25-5.621-14.72-16.476-13.909-27.616c1.621-22.349,16.745-34.638,42.605-34.638c2.161,0,4.456,0.067,6.752,0.27
		c7.089,0.541,18.906,3.089,21.202,3.579c3.781,0.877,5.063,1.283,5.266,1.351l0.405,0.135l2.296,0.743l1.891,34.301
		c-12.221-8.103-24.173-12.509-34.165-13.37c-0.203,0-0.405-0.068-0.607-0.068c-0.068,0-0.203,0-0.339,0
		c-0.945-0.067-1.89-0.067-2.769-0.067c-5.4,0-9.451,1.081-11.411,3.038c-0.944,0.946-1.417,2.161-1.417,3.782
		c0,4.727,7.225,6.819,18.298,9.385l0.405,0.135c1.554,0.338,3.174,0.743,4.727,1.13C924.427,55.096,936.378,68.871,935.906,89.87"
		/>
	<path fill="#ED1C24" d="M590.064,84.671l-8.643,38.825h-96.419l2.565-1.554c0.135,0,7.428-4.321,11.006-6.481
		c3.579-2.228,4.726-3.579,4.726-11.209v-77.53c0-7.546-1.351-9.099-4.861-11.546c-3.781-2.482-10.128-6.33-10.196-6.415
		l-2.498-1.536h93.043l3.58,36.867l-6.753-5.148c-4.052-2.837-5.537-3.427-12.56-3.427h-27.346v14.449h27.278
		c5.334,0,6.146-0.219,7.293-0.742c1.351-0.54,2.903-1.486,2.903-1.486l1.013-0.608v37.188l-1.147-1.739
		c0,0-1.621-2.363-3.916-3.511c-2.026-0.945-5.537-0.877-8.778-0.877c-0.676,0-24.646,0-24.646,0v17.083h26.334
		c10.397,0,13.707-1.013,18.028-3.578C582.299,90.275,590.064,84.671,590.064,84.671"/>
	<path fill="#ED1C24" d="M315.254,7.275l2.499,1.485c0.067,0.085,6.347,3.933,10.196,6.482c3.511,2.313,4.861,3.933,4.861,11.479
		v28.173l-48.615-47.67v0.051l-76.434-0.051c-2.296,0-4.727,1.418-4.861,1.469l-0.743,0.489l0.54,0.743c0,0,1.688,2.295,2.701,3.831
		c0.743,1.232,1.148,2.043,1.283,5.149c0,0,0,59.081,0,59.216v0.607c-0.203,12.492-5.739,18.771-17.488,18.771
		c-11.951,0-18.028-6.482-18.028-19.378V18.906c0.068-3.106,0.541-3.917,1.283-5.149c0.945-1.536,2.701-3.831,2.701-3.831
		l0.54-0.743l-0.743-0.489c-0.135-0.051-2.565-1.469-4.861-1.469H121.2l2.498,1.536c0.068,0,6.347,3.933,10.263,6.482
		c3.511,2.313,4.794,3.933,4.794,11.479v47.957c0,10.532,1.283,19.023,3.714,24.51c1.688,3.899,4.389,7.697,8.237,11.546
		c9.993,9.79,22.552,14.584,38.419,14.584c22.147,0,39.433-10.01,46.32-26.671c2.701-6.432,3.578-12.221,3.578-23.092V26.721
		c0-7.546,1.351-9.166,4.862-11.479c2.093-1.401,4.861-3.089,7.022-4.439c1.958,1.283,4.457,3.038,6.28,4.321
		c3.375,2.498,4.996,4.996,4.996,12.491v76.636c0,7.563-1.35,9.115-4.726,11.209c-3.714,2.229-10.938,6.415-11.006,6.481
		l-2.701,1.486h66.103l-2.633-1.486c-0.068-0.067-7.428-4.253-10.938-6.481c-3.309-2.094-4.794-3.798-4.794-11.209V58.067
		l70.626,69.142V26.721c0-7.478,1.283-9.031,4.862-11.479c3.916-2.684,11.073-6.397,11.141-6.482l3.038-1.485H315.254z"/>
	<path fill="#ED1C24" d="M852.247,7.275l-3.037,1.485c-0.068,0.085-7.226,3.798-11.142,6.482c-3.579,2.448-4.861,4.001-4.861,11.479
		v100.488L762.58,58.067v46.184c0,7.411,1.485,9.115,4.794,11.209c3.511,2.229,10.871,6.415,10.938,6.481l2.634,1.486h-66.103
		l2.7-1.486c0.068-0.067,7.292-4.253,11.006-6.481c3.376-2.094,4.727-3.646,4.727-11.209V27.615c0-7.495-1.621-9.993-4.997-12.491
		c-3.375-2.431-9.317-6.364-9.385-6.364l-2.296-1.485h38.689V7.224l48.614,47.67V26.721c0-7.546-1.351-9.166-4.861-11.479
		c-3.849-2.549-10.128-6.397-10.195-6.482l-2.499-1.485H852.247z"/>
	<path fill="#ED1C24" d="M485.069,116.675c0,0-1.688-2.295-2.701-3.849c-0.877-1.417-1.417-2.633-1.417-7.359V74.07
		c0-4.727,0.405-5.621,1.351-7.039c0.945-1.536,2.633-3.832,2.701-3.832l0.54-0.81l-0.81-0.421
		c-0.135-0.051-2.296-1.199-4.727-1.469v0.05c-0.608-0.05-49.493-0.05-49.493-0.05l2.498,1.536c0,0,7.292,4.473,10.533,6.481
		c3.241,1.975,4.862,4.254,4.862,11.226v17.083c-3.714,1.147-7.495,1.688-12.019,1.688c-19.918,0-29.979-10.804-29.979-32.005
		c0-20.188,11.006-31.819,30.317-31.819c12.086,0,24.78,2.785,40.31,14.467l-0.068-0.878l-3.579-33.625l-0.27-2.499l-2.431-0.557
		l-2.363-0.523c-10.331-2.43-14.382-3.055-20.526-3.849c-3.579-0.405-5.604-0.625-10.128-0.625c0,0-1.283,0-1.958,0
		c-36.394,0-62.794,25.472-62.794,60.499c0,34.503,26.536,59.57,63.132,59.57c6.347,0,18.703-1.148,26.468-2.769
		c1.485-0.271,2.295-0.54,3.443-0.811c0.27-0.067,0.541-0.135,0.81-0.135c4.389-1.08,8.778-2.161,13.302-3.578l5.672-1.756
		L485.069,116.675z"/>
	<path fill="#ED1C24" d="M964.332,186.964c-1.553-0.404-3.105-0.81-4.659-1.147l-0.472-0.136
		c-11.006-2.564-18.231-4.658-18.231-9.385c0-1.62,0.473-2.836,1.418-3.781c1.958-2.025,5.942-3.039,11.411-3.039
		c0.878,0,1.823,0,2.769,0.068c0.135,0,0.202,0,0.338,0c0.202,0,0.405,0.067,0.54,0.067c9.992,0.878,21.944,5.267,34.165,13.353
		l-1.891-34.284l-2.229-0.743l-0.404-0.219c-0.203-0.051-1.486-0.457-5.334-1.267c-2.296-0.473-14.112-3.055-21.135-3.578
		c-2.296-0.22-4.592-0.271-6.751-0.271c-25.861,0-40.985,12.272-42.606,34.622c-0.811,11.158,4.659,22.028,13.909,27.7
		c8.305,4.997,20.661,8.778,29.642,11.614l2.094,0.606c5.671,1.756,12.153,5.2,11.275,11.935c-0.473,3.579-1.891,7.377-12.491,7.377
		c-1.486,0-3.241-0.067-5.064-0.271c-7.359-0.624-15.867-4.794-25.388-12.355c-0.337-0.338-0.675-0.608-0.878-0.743l-5.874-4.389
		l-6.01-4.592l2.364,43.483l2.296,0.743l0.404,0.135c0.068,0.067,1.351,0.473,5.267,1.351c3.917,0.81,16.745,3.089,23.295,3.511
		c2.094,0.203,4.254,0.271,6.415,0.271c28.291,0,46.927-14.045,47.467-35.786C1000.523,206.799,988.572,193.042,964.332,186.964"/>
	<path fill="#ED1C24" d="M721.054,143.616c-36.326,0-62.659,25.388-62.659,60.364c0,34.368,26.468,59.419,62.929,59.419
		c36.26,0,63.605-25.929,63.605-60.246C784.929,169.207,757.448,143.616,721.054,143.616 M721.663,235.445
		c-18.23,0-29.98-12.356-29.98-31.465c0-19.784,11.142-32.072,29.034-32.072c18.704,0,30.722,12.288,30.722,31.245
		C751.438,222.143,739.15,235.445,721.663,235.445"/>
	<path fill="#ED1C24" d="M293.58,152.191c-8.372-4.473-16.88-6.55-28.561-7.021v-0.068h-23.362c-18.5,0-27.278-0.287-33.692-1.755
		c-5.537-1.216-10.466-4.457-10.533-4.524l-1.418-0.877l0.135,1.688c0.067,0.54,1.351,13.032,16.34,23.953
		c2.835,2.093,4.861,4.136,4.861,11.478v21.675c2.701-1.267,5.469-2.549,8.44-3.697c-2.768,2.431-6.482,6.617-8.44,10.668
		c2.363-2.717,16.542-11.36,32.478-8.979v-21.404h13.031c17.083,0,26.941,10.938,26.941,30.047c0,18.905-9.858,29.776-26.941,29.776
		h-13.031c-1.283-1.553-3.309-3.241-4.862-4.389c-2.835-2.161-6.752-3.309-11.073-3.309c-6.212,0-12.221,2.431-16.542,6.533v10.212
		c0,7.157-1.351,9.115-4.727,11.141c-3.511,2.161-11.006,6.55-11.006,6.55l-2.633,1.553h60.769c17.015,0,27.684-2.903,39.23-10.601
		c4.861-3.309,9.047-7.157,12.424-11.411c7.765-9.604,12.154-22.889,12.154-36.394C323.56,181.023,312.351,161.982,293.58,152.191"
		/>
	<path fill="#ED1C24" d="M539.829,247.058c-1.08-1.688-1.419-2.16-2.431-4.523c-0.271-0.608-38.419-97.365-38.419-97.365H453.2
		l8.237,7.545c1.756,1.57,1.756,2.228,1.756,2.853c0,0.473-0.068,1.013-0.203,1.621c0,0-34.84,83.996-35.178,84.738
		c-5.942-6.549-15.529-18.635-27.683-34.908c4.186-2.379,7.9-5.738,10.668-9.857c3.713-5.267,5.671-11.682,5.671-18.703
		c0-14.939-8.845-26.739-23.092-30.79c-5.874-1.823-10.128-2.161-20.729-2.296c-3.106,0-55.367,0-55.367,0l2.431,1.485
		c0,0,6.819,4.389,10.263,6.482c3.309,2.025,4.862,4.254,4.862,11.411v77.446c0,7.428-1.823,9.183-4.794,11.208
		c-3.241,2.161-13.639,7.968-13.639,7.968h67.994c0,0-10.331-5.267-13.909-7.968c-3.376-2.565-4.794-3.916-4.794-11.208v-24.848
		c1.013,0.253,1.553,0.473,1.823,0.607c2.229,1.147,4.659,3.646,7.833,7.968l0.067,0.135l0.067,0.068l29.237,35.245h63.739
		c0,0-6.279-5.063-8.913-7.563c-2.363-2.229-2.769-3.443-1.08-7.563c0.405-1.013,1.147-2.902,1.958-5.198h42.133
		c0.878,2.413,1.554,4.253,1.891,5.198c1.486,3.511,0.473,5.672-1.553,7.766c-2.296,2.413-7.495,7.359-7.495,7.359h60.836
		l-9.857-7.697C542.057,250.299,541.517,249.489,539.829,247.058 M369.609,195.54c-0.607,0-2.228-0.067-3.916-0.067v-27.076h3.916
		c11.208,0,15.057,3.984,15.057,9.925C384.666,193.919,376.901,195.54,369.609,195.54 M470.89,213.5l11.411-28.562l10.465,28.562
		H470.89z"/>
	<path fill="#ED1C24" d="M916.324,145.17h-65.832l2.43,1.553c0.068,0,6.415,3.899,10.264,6.481
		c3.512,2.296,4.862,3.899,4.862,11.479v28.157l-48.683-47.669h-38.622l2.296,1.553c0.067,0,6.01,3.832,9.385,6.347
		c3.377,2.498,4.997,4.929,4.997,12.492v76.636c0,7.495-1.35,9.115-4.794,11.208c-3.714,2.229-10.938,6.415-11.006,6.482
		l-2.634,1.485h66.104l-2.701-1.485c-0.067-0.067-7.359-4.254-10.938-6.482c-3.309-2.093-4.727-3.78-4.727-11.208v-46.201
		l70.627,69.142V164.683c0-7.495,1.215-9.065,4.861-11.479c3.849-2.7,11.074-6.415,11.142-6.481L916.324,145.17z"/>
	<path fill="#ED1C24" d="M651.778,253.59c0-0.051-1.688-2.346-2.701-3.898c-0.877-1.351-1.418-2.583-1.418-7.359v-31.33
		c0-4.727,0.473-5.621,1.352-7.022c0.944-1.57,2.633-3.849,2.7-3.916l0.54-0.743l-0.81-0.489c-0.136,0-2.296-1.131-4.727-1.418
		c-0.608,0-49.493,0-49.493,0l2.498,1.57c0,0,7.292,4.389,10.533,6.481c3.241,1.959,4.862,4.237,4.862,11.209v17.015
		c-3.715,1.131-7.495,1.756-12.019,1.756c-19.919,0-29.98-10.804-29.98-32.005c0-20.257,11.007-31.87,30.317-31.87
		c12.086,0,24.78,2.751,40.31,14.449l-0.066-0.827l-3.579-33.608l-0.27-2.498l-2.432-0.625l-2.295-0.523
		c-10.398-2.379-14.449-2.971-20.594-3.798c-3.579-0.456-5.537-0.659-10.129-0.659h-1.957c-36.396,0-62.795,25.456-62.795,60.499
		c0,34.571,26.536,59.621,63.131,59.621c6.415,0,18.703-1.148,26.469-2.785c1.486-0.321,2.296-0.591,3.443-0.794
		c0.271-0.067,0.541-0.135,0.811-0.202c4.389-1.013,8.777-2.161,13.301-3.511l5.672-1.756L651.778,253.59z"/>
</g>
</svg>
