<svg width="277" height="90" viewBox="0 0 277 90" fill="none" xmlns="http://www.w3.org/2000/svg">
<path d="M97.293 33C98.4766 33 99.6543 33.0176 100.826 33.0528C101.951 33.1582 103.012 33.3633 104.008 33.668C104.969 33.9375 105.789 34.4473 106.468 35.1973C107.254 36.2051 107.687 37.2012 107.769 38.1856C107.816 38.9824 107.746 39.668 107.558 40.2422C107.3 40.9571 106.849 41.6426 106.205 42.2989C105.502 42.9668 104.734 43.5293 103.902 43.9864C103.316 44.3379 102.748 44.5782 102.197 44.7071L108.736 56.168H110.177V57.6094H103.885L97.293 46.166V56.168H98.752V57.6094H92.4414V34.4414H91V33H97.293ZM97.293 42.8086C98.4414 42.7617 99.3438 42.6504 100 42.4746C101.043 42.0879 101.746 41.6074 102.109 41.0332C102.496 40.3653 102.648 39.5918 102.566 38.7129C102.473 37.9512 102.238 37.3184 101.863 36.8145C101.406 36.0762 100.633 35.543 99.543 35.2149C98.8516 34.9922 98.1016 34.9043 97.293 34.9512V42.8086ZM125.277 52.5117V41.1035H124.24V40.0664H128.74V56.625H129.777V57.627H125.277V55.6758C124.258 56.3086 123.595 56.6953 123.291 56.836C122.482 57.2461 121.621 57.5332 120.707 57.6973H119.494C118.463 57.5332 117.467 57.2051 116.506 56.7129C116.095 56.5606 115.644 56.2852 115.152 55.8867C114.578 55.3828 114.162 54.7852 113.904 54.0938C113.763 53.7188 113.693 52.9746 113.693 51.8614V41.1035H112.656V40.0664H117.156V51.7207C117.273 52.7637 117.66 53.5782 118.316 54.1641C118.75 54.5977 119.177 54.8906 119.599 55.043C120.338 55.3125 121.035 55.4473 121.691 55.4473C122.769 55.4473 123.73 54.9258 124.574 53.8828C124.926 53.3321 125.16 52.875 125.277 52.5117ZM136.738 56.3789H140.218L142.363 53.8477H143.242V57.6094H132.238V56.5899H133.275V41.0684H132.238V40.0489C133.07 40.0489 134.043 39.7617 135.156 39.1875C136.047 38.6719 136.855 38.1094 137.582 37.5C138.086 37.0664 138.894 36.8496 140.008 36.8496V37.8692C139.562 37.9043 139.088 38.0625 138.584 38.3438C138.209 38.6133 137.816 39.041 137.406 39.627C136.961 40.2481 136.738 41.0801 136.738 42.1231V56.3789ZM146.74 41.0684H145.703V40.0313H157.744V43.8106H156.865L154.703 41.2793H150.203V46.3946H153.349L155.002 45.1992H156.056V47.7481H150.203V49.1543H156.056V51.6856H155.002L153.349 50.4903H150.203V56.3614H154.703L156.865 53.8301H157.744V57.6094H145.703V56.5723H146.74V41.0684ZM184.146 44.8477L190.07 37.2012V34.4414H188.629V33H194.922V56.168H196.363V57.6094H190.07V41.0684L183.004 50.1914L176.535 44.0918V56.168H177.994V57.6094H171.683V34.4414H170.242V33H176.535V37.6406L184.146 44.8477ZM203.236 51.6504H208.158L205.258 45.6387L203.236 51.6504ZM201.619 56.5723H202.638V57.6094H198.824V56.5723H199.861L204.185 43.3887L203.06 41.0684H202.023V40.0313H206.119L213.959 56.5723H215.101V57.6094H211.023L209.002 53.4082H202.674L201.619 56.5723ZM225.05 40.0313C225.437 40.0664 225.83 40.1309 226.228 40.2246C226.545 40.3301 226.855 40.4473 227.16 40.5762C228.25 41.1035 229.064 41.6895 229.603 42.334L225.947 43.9336C225.877 43.8633 225.595 43.5469 225.103 42.9844C224.33 42.1406 223.369 41.7071 222.22 41.6836C221.834 41.7656 221.558 41.9297 221.394 42.1758C221.289 42.3164 221.224 42.4746 221.201 42.6504C221.189 43.5059 221.992 44.4727 223.609 45.5508C224.054 45.8672 224.564 46.2012 225.138 46.5528C225.49 46.7871 225.865 47.0332 226.263 47.291C226.72 47.5957 227.189 47.9532 227.67 48.3633C228.033 48.7149 228.408 49.1074 228.795 49.541C229.217 50.0215 229.509 50.6133 229.674 51.3164C229.756 51.6211 229.797 51.9785 229.797 52.3887C229.715 53.2324 229.48 53.9707 229.093 54.6035C228.472 55.6699 227.453 56.502 226.035 57.0996C225.472 57.3809 224.851 57.5508 224.172 57.6094H223.574C222.765 57.5625 222.045 57.4219 221.412 57.1875C220.404 56.7774 219.478 56.2793 218.634 55.6934C218.248 55.4473 217.89 55.1074 217.562 54.6739L220.814 53.1973C220.92 53.291 221.177 53.5489 221.588 53.9707C221.892 54.2285 222.244 54.4688 222.642 54.6914C223.416 55.1485 224.101 55.4473 224.699 55.5879L225.314 55.6231C226.017 55.5528 226.58 55.2305 227.002 54.6563C227.201 54.375 227.318 54.0176 227.353 53.584C227.342 53.0918 227.031 52.5938 226.422 52.0899C225.648 51.4453 224.869 50.8418 224.084 50.2793L222.15 48.7852C221.388 48.211 220.703 47.6074 220.093 46.9746C219.566 46.4239 219.174 45.7852 218.916 45.0586C218.822 44.8477 218.746 44.4961 218.687 44.0039V43.4414C218.746 42.5274 219.168 41.7481 219.953 41.1035C220.621 40.6114 221.459 40.2891 222.467 40.1367C222.994 40.0664 223.855 40.0313 225.05 40.0313ZM246.285 40.0313V43.8106H245.406L243.244 41.2793H241.011V56.5723H242.031V57.6094H237.549V42.1582H237.531V41.2793H235.299L233.136 43.8106H232.258V40.0313H246.285ZM249.783 41.0684H248.746V40.0313H260.787V43.8106H259.908L257.746 41.2793H253.246V46.3946H256.392L258.045 45.1992H259.099V47.7481H253.246V49.1543H259.099V51.6856H258.045L256.392 50.4903H253.246V56.3614H257.746L259.908 53.8301H260.787V57.6094H248.746V56.5723H249.783V41.0684ZM267.765 40.0313C268.609 40.0313 269.447 40.043 270.279 40.0664C271.088 40.1485 271.849 40.2949 272.564 40.5059C273.244 40.7051 273.83 41.0684 274.322 41.5957C274.873 42.3223 275.177 43.0371 275.236 43.7403C275.271 44.3028 275.224 44.7891 275.095 45.1992C274.908 45.7149 274.586 46.2071 274.129 46.6758C273.625 47.1563 273.074 47.5547 272.476 47.8711C272.066 48.1289 271.662 48.3047 271.263 48.3985L275.939 56.5723H276.959V57.6094H272.476L267.765 49.4356V56.5723H268.802V57.6094H264.302V41.0684H263.265V40.0313H267.765ZM267.765 47.0449C268.586 47.0098 269.23 46.9278 269.699 46.7989C270.437 46.5176 270.935 46.1719 271.193 45.7617C271.474 45.293 271.586 44.7422 271.527 44.1094C271.457 43.5703 271.287 43.1192 271.017 42.7559C270.701 42.2285 270.15 41.8477 269.365 41.6133C268.873 41.4492 268.34 41.3848 267.765 41.4199V47.0449Z" fill="#F7F3E8"/>
<path d="M3 67.0629V23.6758L36.7711 3L70.5498 23.3065V67.0629L36.7711 87L3 67.0629Z" stroke="#F7F3E8" stroke-width="4" stroke-miterlimit="10"/>
<path d="M36.5365 13.6876L11.7095 28.8861C11.5657 28.9725 11.4825 29.1297 11.4825 29.3026V61.2397C11.4825 61.4126 11.5733 61.5698 11.7171 61.6562L36.5517 76.3124C36.6954 76.3988 36.8695 76.3988 37.0132 76.3124L61.8478 61.6562C61.9916 61.5698 62.0824 61.4126 62.0824 61.2397V29.0275C62.0824 28.8546 61.9916 28.6975 61.8478 28.611L37.0208 13.6798C36.8619 13.6012 36.6879 13.6012 36.5365 13.6876ZM26.5255 34.9529V34.5364C26.5255 33.9784 26.6693 33.4205 26.9341 32.9411C27.2065 32.4539 27.5924 32.0531 28.054 31.7702L35.1896 27.4558C36.2944 26.7878 37.6564 26.7878 38.7612 27.4558L45.8968 31.7702C46.3659 32.0531 46.7519 32.4539 47.0167 32.9411C47.2891 33.4283 47.4253 33.9784 47.4253 34.5364V34.945C47.4253 34.945 47.4253 34.945 47.4253 34.9529V43.4951C47.4253 44.0531 47.2815 44.5953 47.0167 45.0825C46.7519 45.5619 46.3659 45.9706 45.9044 46.2456L45.8968 46.2535L38.5342 50.7093C38.0575 51 37.5202 51.1415 36.983 51.1415C36.4457 51.1415 35.9085 51 35.4318 50.7093L28.0616 46.2535L28.054 46.2456C27.5924 45.9627 27.2065 45.5619 26.9417 45.0825C26.6768 44.6032 26.5331 44.0531 26.5331 43.4951V34.9529H26.5255ZM45.2763 60.4774C42.9154 60.5324 40.9632 61.224 39.9189 63.3458C39.8357 63.5108 39.6844 63.613 39.5103 63.613H37.0208H36.9376H34.4481C34.274 63.613 34.1151 63.503 34.0394 63.3458C32.9952 61.2319 31.043 60.5403 28.6821 60.4774L15.4022 59.4322C15.0541 59.4087 14.8573 59 15.0465 58.6935L23.3625 44.9096C23.4836 44.7053 23.7333 44.6267 23.9452 44.7289L25.2694 45.3576C25.5115 45.4755 25.6099 45.7741 25.4888 46.0177L21.7281 53.4362C21.5616 53.7662 21.8113 54.167 22.167 54.1434C25.171 53.9548 27.2444 53.9548 28.8334 54.0649C28.9469 54.0806 29.0529 54.0884 29.1664 54.1041C32.4731 54.6778 35.1745 56.0766 36.5441 59.3065C36.7106 59.6994 37.2251 59.6994 37.3916 59.3065C38.7612 56.0688 41.4626 54.67 44.7693 54.1041C44.8828 54.0884 44.9888 54.0806 45.1023 54.0649C46.6837 53.9548 48.7571 53.9548 51.7687 54.1434C52.1319 54.167 52.3816 53.7741 52.2076 53.4362L48.4468 46.0177C48.3258 45.7741 48.4241 45.4676 48.6663 45.3576L49.9905 44.7289C50.2024 44.6267 50.4521 44.7053 50.5731 44.9096L58.8892 58.6935C59.0783 59 58.8816 59.4008 58.5335 59.4322L45.2763 60.4774Z" fill="#F7F3E8"/>
<path d="M40.2746 37.6562L38.5342 38.7092L37.7548 39.1807C37.5808 39.2908 37.4673 39.4872 37.4673 39.6994V49.1454C37.4673 49.4597 37.6716 49.6169 37.7548 49.664C37.8456 49.7191 38.0726 49.8212 38.3299 49.664L45.4125 45.3811C46.0633 44.9882 46.4643 44.2574 46.4643 43.4794V34.9528C46.4643 34.6464 46.26 34.4892 46.1768 34.4342C46.086 34.3792 45.859 34.277 45.6017 34.4342L40.2746 37.6562ZM39.9265 47.1572C39.3514 47.5029 38.8823 47.2279 38.8823 46.5363C38.8823 45.8526 39.3439 45.0118 39.9189 44.6739C40.494 44.3281 40.9632 44.6031 40.9632 45.2947C40.9707 45.9784 40.5016 46.8114 39.9265 47.1572ZM42.0755 43.2043C41.5004 43.5501 41.0313 43.275 41.0313 42.5835C41.0313 41.8998 41.4929 41.0589 42.0679 40.721C42.643 40.3752 43.1122 40.6503 43.1122 41.3418C43.1122 42.0255 42.6506 42.8585 42.0755 43.2043ZM44.2245 39.4322C43.6494 39.778 43.1803 39.5029 43.1803 38.8114C43.1803 38.1277 43.6419 37.2868 44.2169 36.9489C44.792 36.6031 45.2612 36.8782 45.2612 37.5697C45.2612 38.2534 44.7996 39.0864 44.2245 39.4322Z" fill="#F7F3E8"/>
<path d="M28.5686 33.3969L29.7414 34.1041L35.916 37.837C36.5744 38.2299 37.384 38.2299 38.0423 37.837L39.8508 36.7446L45.3974 33.3969C45.5865 33.279 45.6092 33.0904 45.6092 33.0118C45.6092 32.9332 45.5865 32.7446 45.3974 32.6267L38.0499 28.1867C37.7245 27.9902 37.3538 27.888 36.983 27.888C36.6122 27.888 36.249 27.9902 35.916 28.1867L28.5686 32.6267C28.3718 32.7446 28.3567 32.9332 28.3567 33.0118C28.3567 33.0904 28.3794 33.279 28.5686 33.3969ZM35.9312 32.4067C36.4987 32.0609 37.4294 32.0609 38.0045 32.4067C38.5796 32.7525 38.5796 33.3104 38.0121 33.6562C37.4446 34.002 36.5138 34.002 35.9387 33.6562C35.3637 33.3026 35.3637 32.7446 35.9312 32.4067Z" fill="#F7F3E8"/>
<path d="M28.5459 45.3812L35.6285 49.6641C35.8858 49.8212 36.1203 49.7191 36.2036 49.6641C36.2944 49.6091 36.4911 49.4597 36.4911 49.1454V39.6994C36.4911 39.4872 36.3776 39.2908 36.2036 39.1808L35.4242 38.7092L29.0226 34.835L28.3643 34.4421C28.107 34.2849 27.8724 34.387 27.7892 34.4421C27.706 34.4971 27.5016 34.6464 27.5016 34.9607V43.4951C27.4941 44.2652 27.8951 44.9961 28.5459 45.3812ZM34.0622 39.5344C34.6372 39.8802 35.0988 40.7132 35.0988 41.3969C35.0988 42.0806 34.6297 42.3556 34.0546 42.0177C33.4795 41.6719 33.0179 40.8389 33.0179 40.1552C33.0179 39.4637 33.4871 39.1886 34.0622 39.5344ZM34.047 44.6739C34.6221 45.0197 35.0837 45.8527 35.0837 46.5364C35.0837 47.2201 34.6145 47.4951 34.0395 47.1572C33.4644 46.8114 33.0028 45.9784 33.0028 45.2947C33.0028 44.6032 33.4719 44.3281 34.047 44.6739ZM31.898 40.721C32.4731 41.0668 32.9347 41.8998 32.9347 42.5835C32.9347 43.2672 32.4655 43.5423 31.8904 43.2043C31.3154 42.8586 30.8538 42.0256 30.8538 41.3419C30.8614 40.6582 31.3229 40.3753 31.898 40.721ZM29.749 36.9489C30.3241 37.2947 30.7857 38.1277 30.7857 38.8114C30.7857 39.4951 30.3165 39.7702 29.7414 39.4322C29.1664 39.0865 28.7048 38.2535 28.7048 37.5698C28.7123 36.8782 29.1815 36.6032 29.749 36.9489ZM29.7414 42.0884C30.3165 42.4342 30.7781 43.2672 30.7781 43.9509C30.7781 44.6346 30.309 44.9096 29.7339 44.5717C29.1588 44.2259 28.6972 43.3929 28.6972 42.7092C28.6972 42.0177 29.1664 41.7426 29.7414 42.0884Z" fill="#F7F3E8"/>
<path d="M46.4113 57.2633C46.3054 57.2711 46.1995 57.2869 46.0935 57.2947C46.0557 57.2947 46.0254 57.3026 45.9952 57.3104C45.9271 57.3183 45.859 57.3262 45.7909 57.334C45.753 57.3419 45.7076 57.3419 45.6698 57.3497C45.6092 57.3576 45.5487 57.3654 45.4882 57.3733C45.4428 57.3812 45.4049 57.389 45.3671 57.389C45.3141 57.3969 45.2536 57.4047 45.2006 57.4126C45.1552 57.4205 45.1174 57.4283 45.072 57.4362C45.019 57.444 44.9661 57.4519 44.9131 57.4597C44.8677 57.4676 44.8299 57.4755 44.7845 57.4833C44.7315 57.4912 44.6861 57.499 44.6331 57.5148C44.5953 57.5226 44.5499 57.5305 44.512 57.5383C44.4666 57.5462 44.4137 57.5619 44.3683 57.5698C44.3304 57.5776 44.285 57.5855 44.2472 57.6012C44.2018 57.6091 44.1564 57.6248 44.111 57.6326C44.0732 57.6405 44.0278 57.6562 43.9899 57.6641C43.9445 57.6719 43.8991 57.6876 43.8537 57.6955C43.8159 57.7034 43.7781 57.7191 43.7327 57.7269C43.6873 57.7427 43.6494 57.7505 43.604 57.7662C43.5662 57.7741 43.5283 57.7898 43.4905 57.7977C43.4451 57.8134 43.4073 57.8212 43.3619 57.8369C43.324 57.8448 43.2862 57.8605 43.2484 57.8684C43.2105 57.8841 43.1651 57.892 43.1273 57.9077C43.0895 57.9234 43.0592 57.9313 43.0214 57.947C42.9835 57.9627 42.9381 57.9784 42.9003 57.9863C42.8625 58.002 42.8322 58.0098 42.7944 58.0256C42.7565 58.0413 42.7187 58.057 42.6809 58.0727C42.643 58.0884 42.6127 58.0963 42.5825 58.112C42.5446 58.1277 42.5068 58.1434 42.469 58.1592C42.4387 58.1749 42.4009 58.1906 42.3706 58.1984C42.3328 58.2142 42.2949 58.2299 42.2647 58.2456C42.2344 58.2613 42.2041 58.277 42.1739 58.2927C42.136 58.3085 42.1058 58.3242 42.0679 58.3399C42.0377 58.3556 42.0074 58.3713 41.9771 58.387C41.9393 58.4028 41.909 58.4185 41.8712 58.4421C41.8409 58.4578 41.8107 58.4735 41.7804 58.4892C41.7426 58.5049 41.7123 58.5285 41.682 58.5442C41.6518 58.5599 41.6291 58.5757 41.5988 58.5914C41.5685 58.6071 41.5307 58.6307 41.5004 58.6464C41.4701 58.6621 41.4474 58.6778 41.4172 58.6935C41.3869 58.7171 41.3491 58.7328 41.3188 58.7564C41.2961 58.7721 41.2658 58.7878 41.2431 58.8036C41.2129 58.8271 41.175 58.8507 41.1448 58.8664C41.1221 58.8821 41.0994 58.8979 41.0767 58.9136C41.0388 58.9372 41.0086 58.9607 40.9783 58.9843C40.9556 59 40.9405 59.0157 40.9178 59.0236C40.8799 59.055 40.8421 59.0786 40.8043 59.11C40.7891 59.1179 40.774 59.1336 40.7589 59.1415C40.7059 59.1808 40.6605 59.2201 40.6075 59.2594C40.6 59.2672 40.5848 59.2751 40.5773 59.2908C40.5394 59.3222 40.5016 59.3537 40.4637 59.3851C40.4486 59.4008 40.4335 59.4165 40.4108 59.4322C40.3805 59.4558 40.3502 59.4872 40.32 59.5108C40.3048 59.5265 40.2821 59.5501 40.267 59.5658C40.2443 59.5894 40.214 59.6208 40.1913 59.6444C40.1762 59.6601 40.1535 59.6837 40.1384 59.6994C40.1157 59.723 40.0854 59.7466 40.0627 59.778C40.0476 59.8016 40.0249 59.8173 40.0097 59.8409C39.987 59.8645 39.9643 59.888 39.9416 59.9195C39.9265 59.943 39.9038 59.9588 39.8887 59.9823C39.8735 59.9981 39.8584 60.0216 39.8357 60.0373C39.7903 60.0924 39.7373 60.1552 39.6919 60.2181C39.6768 60.2338 39.6995 60.2574 39.7146 60.2417C39.813 60.1788 39.9038 60.1238 40.0022 60.0688C40.0627 60.0373 40.1232 59.9981 40.1838 59.9666C40.2519 59.9273 40.3124 59.8959 40.3805 59.8566C40.441 59.8252 40.5016 59.7937 40.5621 59.7623C40.6302 59.7309 40.6983 59.6916 40.7664 59.6601C40.827 59.6287 40.8875 59.5973 40.948 59.5737C41.0161 59.5423 41.0842 59.5108 41.1523 59.4794C41.2129 59.448 41.2734 59.4244 41.3415 59.3929C41.4096 59.3615 41.4777 59.3301 41.5534 59.3065C41.6139 59.2829 41.682 59.2515 41.7426 59.2279C41.8107 59.1965 41.8863 59.1729 41.9544 59.1493C42.015 59.1258 42.0831 59.1022 42.1436 59.0786C42.2117 59.055 42.2874 59.0315 42.363 59C42.4236 58.9764 42.4917 58.9529 42.5522 58.9371C42.6279 58.9136 42.696 58.89 42.7717 58.8664C42.8322 58.8507 42.9003 58.8271 42.9608 58.8114C43.0365 58.7878 43.1122 58.7721 43.1878 58.7485C43.2559 58.7328 43.3165 58.7092 43.3846 58.6935C43.4602 58.6778 43.5359 58.6542 43.6116 58.6385C43.6797 58.6228 43.7402 58.6071 43.8083 58.5914C43.884 58.5757 43.9672 58.5599 44.0429 58.5442C44.1034 58.5285 44.1715 58.5128 44.2321 58.5049C44.3153 58.4892 44.391 58.4735 44.4742 58.4578C44.5347 58.4499 44.6028 58.4342 44.6634 58.4263C44.7466 58.4106 44.8299 58.4028 44.9131 58.387C44.9736 58.3792 45.0342 58.3635 45.1023 58.3556C45.1931 58.3399 45.2839 58.332 45.3671 58.3242C45.4276 58.3163 45.4806 58.3085 45.5411 58.3006C45.6395 58.2927 45.7379 58.277 45.8438 58.2692C45.8968 58.2613 45.9422 58.2613 45.9952 58.2535C46.1465 58.2377 46.2978 58.2299 46.4492 58.2142C51.0574 58.1513 57.5877 57.5619 56.6569 57.3812C52.8508 57.2397 49.2338 57.114 46.4113 57.2633Z" fill="#F7F3E8"/>
<path d="M34.1076 60.053C34.0924 60.0373 34.0773 60.0137 34.0546 59.998C34.0395 59.9744 34.0168 59.9587 34.0016 59.9352C33.9789 59.9116 33.9562 59.888 33.9335 59.8566C33.9184 59.833 33.8957 59.8173 33.8805 59.7937C33.8578 59.7701 33.8351 59.7466 33.8049 59.7151C33.7897 59.6994 33.767 59.6758 33.7519 59.6601C33.7292 59.6365 33.6989 59.6051 33.6762 59.5815C33.6611 59.5658 33.6384 59.5422 33.6233 59.5265C33.593 59.4951 33.5627 59.4715 33.5325 59.4479C33.5173 59.4322 33.5022 59.4165 33.4795 59.4008C33.4417 59.3693 33.4038 59.3379 33.366 59.3065C33.3584 59.2986 33.3433 59.2908 33.3357 59.275C33.2903 59.2358 33.2374 59.1965 33.1844 59.1572C33.1693 59.1493 33.1541 59.1336 33.139 59.1257C33.1012 59.0943 33.0633 59.0707 33.0255 59.0393C33.0028 59.0236 32.9877 59.0079 32.965 59C32.9347 58.9764 32.8969 58.9528 32.8666 58.9293C32.8439 58.9135 32.8212 58.8978 32.7985 58.8821C32.7682 58.8585 32.7304 58.835 32.7001 58.8192C32.6774 58.8035 32.6471 58.7878 32.6244 58.7721C32.5942 58.7485 32.5563 58.7328 32.5261 58.7092C32.5034 58.6935 32.4731 58.6778 32.4428 58.6621C32.4126 58.6464 32.3747 58.6228 32.3445 58.6071C32.3142 58.5913 32.2915 58.5756 32.2612 58.5599C32.231 58.5442 32.1931 58.5206 32.1629 58.5049C32.1326 58.4892 32.1023 58.4735 32.0721 58.4578C32.0342 58.442 32.004 58.4185 31.9661 58.4027C31.9359 58.387 31.9056 58.3713 31.8753 58.3556C31.8375 58.3399 31.8072 58.3242 31.7694 58.3084C31.7391 58.2927 31.7088 58.277 31.6786 58.2613C31.6407 58.2456 31.6029 58.2299 31.5726 58.2141C31.5424 58.1984 31.5045 58.1827 31.4743 58.1748C31.4364 58.1591 31.3986 58.1434 31.3608 58.1277C31.3305 58.112 31.2927 58.1041 31.2624 58.0884C31.2246 58.0727 31.1867 58.057 31.1489 58.0413C31.1111 58.0255 31.0808 58.0177 31.043 58.002C31.0051 57.9862 30.9673 57.9705 30.9219 57.9627C30.8841 57.947 30.8538 57.9391 30.816 57.9234C30.7781 57.9077 30.7327 57.8998 30.6949 57.8841C30.657 57.8684 30.6192 57.8605 30.5814 57.8526C30.536 57.8369 30.4981 57.8291 30.4527 57.8134C30.4149 57.8055 30.3771 57.7898 30.3392 57.7819C30.2938 57.7662 30.256 57.7583 30.2106 57.7426C30.1728 57.7348 30.1349 57.719 30.0895 57.7112C30.0441 57.6955 29.9987 57.6876 29.9533 57.6798C29.9155 57.6719 29.8701 57.6562 29.8323 57.6483C29.7869 57.6405 29.7414 57.6248 29.696 57.6169C29.6582 57.609 29.6128 57.6012 29.575 57.5855C29.5296 57.5776 29.4766 57.5619 29.4312 57.554C29.3934 57.5462 29.348 57.5383 29.3101 57.5304C29.2572 57.5226 29.2118 57.5147 29.1588 57.499C29.1134 57.4912 29.0756 57.4833 29.0302 57.4754C28.9772 57.4676 28.9242 57.4597 28.8713 57.4519C28.8259 57.444 28.788 57.4361 28.7426 57.4283C28.6897 57.4204 28.6291 57.4126 28.5761 57.4047C28.5383 57.3968 28.4929 57.389 28.4551 57.389C28.3945 57.3811 28.334 57.3733 28.2735 57.3654C28.2356 57.3576 28.1978 57.3576 28.1524 57.3497C28.0843 57.3418 28.0162 57.334 27.9481 57.3261C27.9178 57.3261 27.88 57.3183 27.8497 57.3104C27.7438 57.3025 27.6379 57.2868 27.5319 57.279C24.7019 57.1218 21.0849 57.2554 17.2863 57.4204C16.3556 57.5933 22.8858 58.1906 27.4941 58.2534C27.6454 58.2613 27.7968 58.277 27.9481 58.2927C28.0011 58.3006 28.0465 58.3006 28.0994 58.3084C28.1978 58.3163 28.2962 58.332 28.4021 58.3399C28.4626 58.3477 28.5232 58.3556 28.5761 58.3635C28.6669 58.3713 28.7578 58.387 28.841 58.3949C28.9015 58.4027 28.9621 58.4106 29.0302 58.4263C29.1134 58.442 29.1966 58.4499 29.2799 58.4656C29.3404 58.4735 29.4085 58.4892 29.469 58.497C29.5523 58.5128 29.6279 58.5285 29.7112 58.5442C29.7793 58.5599 29.8398 58.5678 29.9079 58.5835C29.9836 58.5992 30.0668 58.6149 30.1425 58.6306C30.2106 58.6464 30.2711 58.6621 30.3392 58.6778C30.4149 58.6935 30.4906 58.7171 30.5662 58.7328C30.6343 58.7485 30.6949 58.7642 30.763 58.7878C30.8387 58.8114 30.9143 58.8271 30.99 58.8507C31.0581 58.8664 31.1186 58.89 31.1792 58.9057C31.2548 58.9293 31.3305 58.9528 31.3986 58.9764C31.4591 59 31.5272 59.0157 31.5878 59.0393C31.6634 59.0629 31.7315 59.0864 31.8072 59.1179C31.8678 59.1414 31.9359 59.165 31.9964 59.1886C32.0645 59.2122 32.1402 59.2436 32.2083 59.2672C32.2688 59.2908 32.3369 59.3143 32.3974 59.3458C32.4655 59.3772 32.5336 59.4008 32.6093 59.4322C32.6698 59.4558 32.7304 59.4872 32.7985 59.5187C32.8666 59.5501 32.9347 59.5815 33.0028 59.613C33.0633 59.6444 33.1239 59.6758 33.1844 59.6994C33.2525 59.7308 33.3206 59.7701 33.3887 59.8016C33.4492 59.833 33.5098 59.8644 33.5703 59.8959C33.6384 59.9352 33.7065 59.9666 33.767 60.0059C33.8276 60.0373 33.8881 60.0766 33.9486 60.108C34.047 60.1631 34.1454 60.2181 34.2362 60.2809C34.2513 60.2888 34.274 60.2731 34.2589 60.2574C34.2059 60.1788 34.1605 60.1159 34.1076 60.053Z" fill="#F7F3E8"/>
</svg>
