<svg width="72" height="90" viewBox="0 0 72 90" fill="none" xmlns="http://www.w3.org/2000/svg">
<path d="M36.8018 1.28613L70.5801 21.5928L71.5498 22.1748V68.2051L70.5664 68.7852L36.7881 88.7227L35.7705 89.3223L34.7539 88.7227L0.983398 68.7852L0 68.2051V22.5557L0.956055 21.9697L34.7266 1.29395L35.7617 0.661133L36.8018 1.28613ZM4 24.7959V65.9209L35.7715 84.6768L67.5498 65.9209V24.4375L35.7803 5.33887L4 24.7959ZM35.5361 13.6875C35.6874 13.6012 35.8617 13.6012 36.0205 13.6797L60.8477 28.6113C60.9914 28.6978 61.082 28.8545 61.082 29.0273V61.2393C61.082 61.4122 60.9915 61.5698 60.8477 61.6562L36.0137 76.3125C35.87 76.3989 35.6954 76.3989 35.5518 76.3125L10.7168 61.6562C10.5731 61.5698 10.4824 61.4121 10.4824 61.2393V29.3027C10.4824 29.1298 10.5662 28.9721 10.71 28.8857L35.5361 13.6875ZM49.5732 44.9092C49.4522 44.7051 49.202 44.6264 48.9902 44.7285L47.666 45.3574C47.4239 45.4675 47.3263 45.774 47.4473 46.0176L51.208 53.4365C51.3816 53.7743 51.1316 54.1671 50.7686 54.1436C47.7572 53.955 45.6839 53.9544 44.1025 54.0645C43.9891 54.0801 43.883 54.0888 43.7695 54.1045C40.4628 54.6704 37.7612 56.0689 36.3916 59.3066C36.2251 59.6994 35.7105 59.6994 35.5439 59.3066C34.1743 56.0767 31.4727 54.6782 28.166 54.1045C28.0526 54.0888 27.9464 54.0801 27.833 54.0645C26.2441 53.9544 24.1707 53.955 21.167 54.1436C20.8113 54.1671 20.5621 53.7665 20.7285 53.4365L24.4893 46.0176C24.6101 45.774 24.5115 45.4753 24.2695 45.3574L22.9453 44.7285C22.7335 44.6264 22.4834 44.7051 22.3623 44.9092L14.0469 58.6934C13.8577 58.9999 14.0542 59.4091 14.4023 59.4326L27.6816 60.4775C30.0425 60.5404 31.9948 61.232 33.0391 63.3457C33.1148 63.5029 33.2741 63.6133 33.4482 63.6133H38.5107C38.6847 63.6131 38.8358 63.5106 38.9189 63.3457C39.9633 61.224 41.9155 60.5325 44.2764 60.4775L57.5332 59.4326C57.8813 59.4012 58.0787 58.9998 57.8896 58.6934L49.5732 44.9092ZM16.2861 57.4199C20.0847 57.2549 23.7022 57.1221 26.5322 57.2793C26.6381 57.2871 26.7439 57.3027 26.8496 57.3105C26.8799 57.3184 26.9179 57.3262 26.9482 57.3262C27.0163 57.3341 27.0843 57.3417 27.1523 57.3496L27.5762 57.4043C27.6291 57.4122 27.6894 57.4208 27.7422 57.4287C27.7875 57.4365 27.8258 57.4443 27.8711 57.4521C27.924 57.4599 27.9773 57.4678 28.0303 57.4756C28.0756 57.4835 28.1138 57.4912 28.1592 57.499C28.212 57.5147 28.2578 57.5225 28.3105 57.5303C28.3484 57.5381 28.394 57.5459 28.4316 57.5537C28.477 57.5616 28.5299 57.5781 28.5752 57.5859C28.6129 57.6015 28.6586 57.6093 28.6963 57.6172C28.7415 57.6251 28.7868 57.6406 28.832 57.6484C28.8698 57.6563 28.9154 57.6718 28.9531 57.6797C28.9985 57.6875 29.0444 57.6952 29.0898 57.7109C29.1351 57.7188 29.1732 57.7344 29.2109 57.7422C29.2562 57.7578 29.2936 57.7666 29.3389 57.7822C29.3768 57.7901 29.4153 57.8056 29.4531 57.8135C29.4982 57.829 29.5359 57.837 29.5811 57.8525C29.6189 57.8604 29.6574 57.8681 29.6953 57.8838C29.7331 57.8994 29.7786 57.9082 29.8164 57.9238C29.854 57.9394 29.8842 57.9473 29.9219 57.9629C29.9673 57.9707 30.0051 57.9862 30.043 58.002C30.0806 58.0176 30.1109 58.0254 30.1484 58.041C30.1862 58.0567 30.2249 58.0732 30.2627 58.0889C30.2928 58.1044 30.3302 58.1124 30.3604 58.1279C30.3982 58.1436 30.4367 58.1591 30.4746 58.1748C30.5046 58.1827 30.5422 58.1983 30.5723 58.2139C30.6026 58.2297 30.6408 58.246 30.6787 58.2617C30.7088 58.2774 30.7393 58.2929 30.7695 58.3086C30.8071 58.3243 30.8374 58.3398 30.875 58.3555C30.9052 58.3711 30.9357 58.3867 30.9658 58.4023C31.0037 58.4181 31.0344 58.4422 31.0723 58.458C31.1024 58.4737 31.1329 58.4892 31.1631 58.5049C31.1931 58.5205 31.2307 58.5439 31.2607 58.5596C31.291 58.5753 31.3144 58.5916 31.3447 58.6074C31.3748 58.6231 31.4123 58.6465 31.4424 58.6621C31.4727 58.6778 31.5037 58.6933 31.5264 58.709C31.5565 58.7325 31.5939 58.7489 31.624 58.7725C31.6467 58.7882 31.6775 58.8036 31.7002 58.8193C31.7305 58.8351 31.7686 58.8583 31.7988 58.8818C31.8215 58.8975 31.8436 58.9139 31.8662 58.9297C31.8965 58.9532 31.9346 58.9764 31.9648 59C31.9875 59.0079 32.0028 59.0234 32.0254 59.0391C32.0632 59.0704 32.1009 59.0946 32.1387 59.126C32.1538 59.1339 32.1695 59.1493 32.1846 59.1572C32.2375 59.1965 32.2906 59.2362 32.3359 59.2754C32.3436 59.2909 32.3587 59.2988 32.3662 59.3066C32.4039 59.3379 32.4418 59.369 32.4795 59.4004C32.5022 59.4161 32.517 59.4325 32.5322 59.4482C32.5624 59.4718 32.5928 59.4951 32.623 59.5264C32.638 59.5419 32.6607 59.5654 32.6758 59.5811C32.6985 59.6047 32.7293 59.6366 32.752 59.6602C32.767 59.6758 32.7895 59.6992 32.8047 59.7148C32.8349 59.7463 32.8582 59.7703 32.8809 59.7939C32.896 59.8173 32.9186 59.833 32.9336 59.8564C32.9563 59.8878 32.9793 59.9119 33.002 59.9355C33.0172 59.9588 33.0397 59.9746 33.0547 59.998C33.0772 60.0137 33.0923 60.0371 33.1074 60.0527C33.1603 60.1156 33.2058 60.1792 33.2588 60.2578C33.2735 60.2734 33.2514 60.2888 33.2363 60.2812C33.1455 60.2185 33.0466 60.1635 32.9482 60.1084C32.8878 60.077 32.8272 60.0372 32.7666 60.0059C32.7062 59.9666 32.6383 59.9347 32.5703 59.8955C32.5099 59.864 32.4491 59.8331 32.3887 59.8018C32.3206 59.7703 32.2526 59.7306 32.1846 59.6992C32.1241 59.6756 32.0634 59.6446 32.0029 59.6133C31.9349 59.5818 31.8669 59.5499 31.7988 59.5186C31.7308 59.4871 31.6698 59.4562 31.6094 59.4326C31.5337 59.4012 31.4656 59.3771 31.3975 59.3457C31.337 59.3142 31.2685 59.2912 31.208 59.2676C31.1399 59.244 31.0641 59.2121 30.9961 59.1885C30.9358 59.165 30.868 59.1416 30.8076 59.1182C30.7319 59.0867 30.6635 59.0627 30.5879 59.0391C30.5273 59.0155 30.4589 59.0002 30.3984 58.9766C30.3305 58.953 30.2551 58.9288 30.1797 58.9053C30.1191 58.8896 30.0583 58.8663 29.9902 58.8506C29.9145 58.827 29.8384 58.8117 29.7627 58.7881C29.6947 58.7645 29.6344 58.7481 29.5664 58.7324C29.4908 58.7167 29.4146 58.6934 29.3389 58.6777C29.2709 58.6621 29.2105 58.6466 29.1426 58.6309C29.0669 58.6152 28.9839 58.5987 28.9082 58.583C28.8401 58.5673 28.779 58.5596 28.7109 58.5439C28.6278 58.5283 28.5519 58.5129 28.4688 58.4971C28.4084 58.4893 28.3406 58.4737 28.2803 58.4658C28.197 58.4501 28.1134 58.4424 28.0303 58.4268C27.9622 58.4111 27.9013 58.4023 27.8408 58.3945C27.7577 58.3866 27.6669 58.3711 27.5762 58.3633C27.5233 58.3554 27.4628 58.3476 27.4023 58.3398L26.9482 58.293C26.7969 58.2773 26.6454 58.2608 26.4941 58.2529C21.886 58.1901 15.3559 57.5928 16.2861 57.4199ZM45.4111 57.2637C48.2336 57.1144 51.8511 57.2394 55.6572 57.3809C56.5866 57.5616 50.057 58.151 45.4492 58.2139C45.2978 58.2296 45.1464 58.2381 44.9951 58.2539L44.541 58.3008C44.4806 58.3087 44.4276 58.3163 44.3672 58.3242C44.2841 58.332 44.1933 58.3398 44.1025 58.3555C44.0344 58.3634 43.9736 58.3789 43.9131 58.3867C43.8299 58.4025 43.7463 58.4111 43.6631 58.4268C43.6027 58.4347 43.5349 58.4501 43.4746 58.458C43.3915 58.4737 43.3155 58.4892 43.2324 58.5049C43.1719 58.5128 43.1034 58.5283 43.043 58.5439C42.9673 58.5596 42.8842 58.5761 42.8086 58.5918C42.7405 58.6075 42.6794 58.623 42.6113 58.6387C42.5358 58.6544 42.4602 58.6777 42.3848 58.6934C42.3167 58.7091 42.2556 58.7323 42.1875 58.748C42.112 58.7716 42.0366 58.788 41.9609 58.8115C41.9004 58.8272 41.832 58.8505 41.7715 58.8662C41.6958 58.8898 41.6274 58.914 41.5518 58.9375C41.4915 58.9533 41.4236 58.9765 41.3633 59C41.2877 59.0315 41.2116 59.0545 41.1436 59.0781C41.0831 59.1017 41.0147 59.1259 40.9541 59.1494C40.8861 59.173 40.8102 59.1962 40.7422 59.2275C40.6817 59.2511 40.6141 59.2831 40.5537 59.3066C40.4781 59.3302 40.4098 59.3612 40.3418 59.3926C40.2737 59.4241 40.2129 59.4481 40.1523 59.4795C40.0844 59.5108 40.0162 59.5419 39.9482 59.5732C39.8878 59.5968 39.8272 59.6288 39.7666 59.6602C39.6986 59.6916 39.6305 59.7313 39.5625 59.7627C39.5021 59.794 39.4412 59.8251 39.3809 59.8564C39.3128 59.8957 39.2517 59.9275 39.1836 59.9668C39.1231 59.9983 39.0624 60.0369 39.002 60.0684C38.9037 60.1233 38.8131 60.1784 38.7148 60.2412C38.6998 60.2569 38.6764 60.2335 38.6914 60.2178C38.7368 60.1549 38.7905 60.0922 38.8359 60.0371C38.8585 60.0214 38.8736 59.9982 38.8887 59.9824C38.9037 59.9591 38.9263 59.9432 38.9414 59.9199C38.9641 59.8884 38.9871 59.8644 39.0098 59.8408C39.0249 59.8174 39.0474 59.8017 39.0625 59.7783C39.0852 59.7469 39.116 59.7228 39.1387 59.6992C39.1538 59.6835 39.1764 59.6602 39.1914 59.6445C39.2141 59.6209 39.2439 59.589 39.2666 59.5654C39.2817 59.5497 39.3051 59.5264 39.3203 59.5107C39.3504 59.4872 39.3809 59.4562 39.4111 59.4326C39.4338 59.4169 39.4488 59.4005 39.4639 59.3848C39.5016 59.3535 39.5394 59.3223 39.5771 59.291C39.5846 59.2755 39.5998 59.2675 39.6074 59.2598C39.6604 59.2205 39.7058 59.1809 39.7588 59.1416C39.7739 59.1337 39.7895 59.1183 39.8047 59.1104C39.8425 59.079 39.8801 59.0548 39.918 59.0234C39.9406 59.0155 39.9559 59 39.9785 58.9844C40.0088 58.9608 40.0393 58.9376 40.0771 58.9141C40.0998 58.8984 40.1219 58.8819 40.1445 58.8662C40.1747 58.8505 40.213 58.8272 40.2432 58.8037C40.2657 58.788 40.2957 58.7724 40.3184 58.7568C40.3486 58.7333 40.3867 58.7169 40.417 58.6934C40.4471 58.6777 40.4699 58.6621 40.5 58.6465C40.5302 58.6308 40.5684 58.6075 40.5986 58.5918C40.6289 58.5761 40.6515 58.5596 40.6816 58.5439C40.7119 58.5283 40.7425 58.505 40.7803 58.4893C40.8105 58.4736 40.8409 58.458 40.8711 58.4424C40.9089 58.4188 40.9397 58.4025 40.9775 58.3867C41.0077 58.3711 41.0383 58.3555 41.0684 58.3398C41.106 58.3242 41.1361 58.3087 41.1738 58.293C41.204 58.2773 41.2343 58.2608 41.2646 58.2451C41.2947 58.2295 41.3325 58.214 41.3701 58.1982C41.4004 58.1905 41.4385 58.1748 41.4688 58.1592C41.5064 58.1434 41.5443 58.1279 41.582 58.1123C41.6122 58.0966 41.6428 58.088 41.6807 58.0723C41.7184 58.0566 41.7561 58.041 41.7939 58.0254C41.8317 58.0096 41.8626 58.002 41.9004 57.9863C41.9382 57.9784 41.9836 57.963 42.0215 57.9473C42.0592 57.9316 42.0892 57.9229 42.127 57.9072C42.1647 57.8916 42.2102 57.8838 42.248 57.8682C42.2858 57.8603 42.3244 57.8448 42.3623 57.8369C42.4075 57.8213 42.4451 57.8134 42.4902 57.7979C42.5279 57.79 42.5659 57.7745 42.6035 57.7666C42.6489 57.7509 42.6871 57.7423 42.7324 57.7266C42.7778 57.7188 42.8158 57.7032 42.8535 57.6953C42.8989 57.6874 42.9448 57.6719 42.9902 57.6641C43.0281 57.6561 43.0736 57.6407 43.1113 57.6328C43.1566 57.625 43.2018 57.6095 43.2471 57.6016C43.2849 57.5859 43.3303 57.5771 43.3682 57.5693C43.4135 57.5614 43.4664 57.546 43.5117 57.5381C43.5495 57.5303 43.5951 57.5224 43.6328 57.5146C43.6857 57.4989 43.7313 57.4913 43.7842 57.4834C43.8296 57.4756 43.8677 57.4679 43.9131 57.46C43.9661 57.4522 44.0193 57.4443 44.0723 57.4365C44.1175 57.4287 44.155 57.42 44.2002 57.4121C44.2532 57.4042 44.3142 57.3966 44.3672 57.3887L44.791 57.334C44.859 57.3262 44.9271 57.3184 44.9951 57.3105C45.0253 57.3027 45.056 57.2949 45.0938 57.2949C45.1996 57.2871 45.3054 57.2715 45.4111 57.2637ZM37.7607 27.4561C36.656 26.7882 35.2942 26.7881 34.1895 27.4561L27.0537 31.7705C26.5923 32.0534 26.2069 32.4543 25.9346 32.9414C25.6698 33.4207 25.5254 33.9782 25.5254 34.5361V34.9531H25.5332V43.4951C25.5332 44.0529 25.6767 44.6029 25.9414 45.082C26.2062 45.5614 26.5921 45.9632 27.0537 46.2461L27.0615 46.2539L34.4316 50.709C34.9083 50.9997 35.4461 51.1416 35.9834 51.1416C36.5205 51.1415 37.0576 50.9996 37.5342 50.709L44.8965 46.2539L44.9043 46.2461C45.3658 45.9711 45.7518 45.5614 46.0166 45.082C46.2813 44.5949 46.4258 44.053 46.4258 43.4951V34.5361C46.4257 33.9783 46.2889 33.4285 46.0166 32.9414C45.7518 32.4542 45.3656 32.0534 44.8965 31.7705L37.7607 27.4561ZM26.7891 34.4424C26.8723 34.3873 27.107 34.2852 27.3643 34.4424L28.0225 34.835L34.4238 38.709L35.2031 39.1807C35.3771 39.2906 35.4911 39.4871 35.4912 39.6992V49.1455C35.4912 49.4597 35.2939 49.6091 35.2031 49.6641C35.1196 49.7191 34.8858 49.8207 34.6289 49.6641L27.5459 45.3809C26.8952 44.9957 26.4945 44.2652 26.502 43.4951V34.9609C26.502 34.6469 26.7057 34.4975 26.7891 34.4424ZM44.6016 34.4346C44.8589 34.2774 45.086 34.3796 45.1768 34.4346C45.2601 34.4897 45.4639 34.6469 45.4639 34.9531V43.4795C45.4638 44.2575 45.0629 44.988 44.4121 45.3809L37.3301 49.6641C37.0729 49.8212 36.8458 49.7192 36.7549 49.6641C36.6717 49.617 36.4678 49.4597 36.4678 49.1455V39.6992C36.4678 39.4871 36.5809 39.2907 36.7549 39.1807L37.5342 38.709L39.2744 37.6562L44.6016 34.4346ZM39.9629 45.2949C39.9629 44.6034 39.494 44.3281 38.9189 44.6738C38.344 45.0117 37.8819 45.8525 37.8818 46.5361C37.8818 47.2277 38.3517 47.5029 38.9268 47.1572C39.5017 46.8114 39.9703 45.9785 39.9629 45.2949ZM33.0469 44.6738C32.4718 44.3281 32.0029 44.6035 32.0029 45.2949C32.003 45.9785 32.4642 46.8114 33.0391 47.1572C33.6141 47.4951 34.084 47.2198 34.084 46.5361C34.0839 45.8525 33.6219 45.0196 33.0469 44.6738ZM28.7412 42.0889C28.1663 41.7431 27.6974 42.0176 27.6973 42.709C27.6973 43.3927 28.1593 44.2255 28.7344 44.5713C29.3093 44.909 29.7782 44.6346 29.7783 43.9512C29.7783 43.2675 29.3163 42.4347 28.7412 42.0889ZM42.1123 41.3418C42.1123 40.6505 41.6432 40.3753 41.0684 40.7207C40.4935 41.0585 40.0315 41.8994 40.0312 42.583C40.0312 43.2745 40.5002 43.5498 41.0752 43.2041C41.6503 42.8583 42.1123 42.0255 42.1123 41.3418ZM30.8984 40.7207C30.3234 40.375 29.8612 40.6582 29.8535 41.3418C29.8535 42.0255 30.3156 42.8584 30.8906 43.2041C31.4657 43.542 31.9346 43.2667 31.9346 42.583C31.9344 41.8995 31.4733 41.0665 30.8984 40.7207ZM33.0625 39.5342C32.4874 39.1884 32.0176 39.4638 32.0176 40.1553C32.0176 40.839 32.4796 41.6718 33.0547 42.0176C33.6298 42.3555 34.0986 42.0802 34.0986 41.3965C34.0984 40.7129 33.6373 39.88 33.0625 39.5342ZM44.2607 37.5693C44.2606 36.8781 43.7918 36.6035 43.2168 36.9492C42.6419 37.2872 42.1807 38.1279 42.1807 38.8115C42.1807 39.5029 42.6496 39.7783 43.2246 39.4326C43.7997 39.0868 44.2607 38.253 44.2607 37.5693ZM28.749 36.9492C28.1816 36.6036 27.7128 36.8781 27.7051 37.5693C27.7051 38.253 28.1662 39.0869 28.7412 39.4326C29.3163 39.7706 29.7861 39.4951 29.7861 38.8115C29.7861 38.1279 29.324 37.2951 28.749 36.9492ZM35.9834 27.8877C36.354 27.8878 36.7246 27.9902 37.0498 28.1865L44.3975 32.627C44.5863 32.7448 44.6094 32.9331 44.6094 33.0117C44.6094 33.0903 44.5863 33.2786 44.3975 33.3965L38.8506 36.7441L37.042 37.8369C36.3837 38.2297 35.5744 38.2298 34.916 37.8369L28.7412 34.1045L27.5684 33.3965C27.3795 33.2786 27.3564 33.0903 27.3564 33.0117C27.3565 32.9331 27.3719 32.7448 27.5684 32.627L34.916 28.1865C35.249 27.9901 35.6126 27.8877 35.9834 27.8877ZM37.0049 32.4062C36.43 32.0606 35.4992 32.0608 34.9316 32.4062C34.3642 32.7441 34.3636 33.3026 34.9385 33.6562C35.5135 34.002 36.4442 34.0019 37.0117 33.6562C37.5792 33.3105 37.5799 32.7521 37.0049 32.4062Z" fill="#F7F3E8"/>
</svg>
